PathFileType	4	(X/Y/Z)	C:/Users/beibeiliu/ov580/test_trc/User3\sequence.24_training_dense_right.trc
DataRate	CameraRate	NumFrames	NumMarkers	Units	OrigDataRate	OrigDataStartFrame	OrigNumFrames
120	120	8	19	mm	120	38	75
Frame#	Time	ThumbCMC			ThumbMCP			ThumbIP			ThumbTip			IndexMCP			IndexPIP			IndexTip			MiddleMCP			MiddlePIP			MiddleTip			RingMCP			RingPIP			RingTip			PinkyMCP			PinkyPIP			PinkyTip			BackHand1			BackHand2			BackHand3	
		X0	Y0	Z0	X1	Y1	Z1	X2	Y2	Z2	X3	Y3	Z3	X4	Y4	Z4	X5	Y5	Z5	X6	Y6	Z6	X7	Y7	Z7	X8	Y8	Z8	X9	Y9	Z9	X10	Y10	Z10	X11	Y11	Z11	X12	Y12	Z12	X13	Y13	Z13	X14	Y14	Z14	X15	Y15	Z15	X16	Y16	Z16	X17	Y17	Z17	X18	Y18	Z18	
37	0.308333	142.661	48.3645	33.9979	105.599	34.8033	24.7015	88.0684	4.3632	14.0887	94.3489	-21.3561	15.9242	129.127	14.8321	-35.6698	111.753	4.65263	-51.6658	91.9171	-2.48114	-67.6684	131.992	-3.93448	-38.8487	111.653	-15.2836	-52.5664	84.9547	-25.6153	-68.1315	126.672	-20.2762	-9.51818	101.579	-17.5297	12.9317	114.024	1.3208	33.9665	131.069	-31.2775	9.79809	112.795	-20.444	29.7235	127.653	0.221103	44.2469	179.405	1.26129	9.93137	193.445	8.90959	32.3262	173.56	34.4842	10.4938	
38	0.316667	151.464	53.9692	33.9549	112.268	50.5955	25.254	86.5328	27.8854	16.8482	81.5809	4.10749	20.772	124.074	20.2355	-35.9126	104.575	18.0291	-51.7322	83.0362	12.2613	-63.9036	123.825	-0.194703	-33.33	101.115	0.337191	-48.8173	71.7708	-1.84505	-65.6203	109.968	-7.35713	-5.53899	89.6579	-1.62601	14.2235	107.673	17.1451	37.1317	116.725	-19.991	13.7151	100.048	-7.97425	31.9689	118.345	9.73321	46.9035	168.712	-4.02473	13.8253	185.983	2.45146	34.2647	177.234	27.8943	12.0363	
39	0.325	160.835	59.2604	32.3068	121.538	61.3671	20.5113	94.8178	47.2727	15.1161	81.0529	29.0955	19.441	130.251	31.542	-32.742	109.843	32.8879	-51.3613	87.2502	33.3148	-65.6776	119.188	13.0748	-35.519	95.2193	14.5947	-50.2341	68.1684	18.9443	-65.1478	101.43	5.64309	-4.06231	85.6949	22.7763	14.2842	109.613	33.118	36.5102	105.748	-2.44636	12.7783	92.9299	14.7464	32.6804	117.706	23.0991	48.8305	158.685	-8.32968	15.9274	178.205	-5.8431	40.9632	178.166	23.6783	12.6194	
40	0.333333	170.558	54.7871	28.3041	137.895	69.5014	17.9997	107.005	65.9457	10.0688	88.7551	47.498	11.9318	137.619	33.5246	-36.4048	117.286	37.3302	-53.3291	95.5019	43.322	-71.1405	120.818	15.9858	-34.5491	103.776	26.4732	-51.107	78.8912	36.2714	-71.5272	104.224	15.6826	-5.53151	89.8294	39.7792	8.53123	111.416	43.2846	33.6789	98.7366	8.16342	12.2162	92.2552	30.8705	29.0268	115.632	32.8847	47.051	152.359	-6.84894	15.6072	170.441	-11.2801	41.0527	176.661	15.0732	16.8371	
41	0.341667	181.567	45.4679	27.2253	157.115	69.703	11.1585	126.042	68.149	-2.05002	101.327	56.1213	-1.50746	154.048	28.0354	-42.5625	137.388	34.4224	-62.8755	124.09	42.1527	-80.9982	133.69	16.8001	-44.1658	117.881	25.4183	-61.5099	99.7892	37.925	-85.0823	111.669	23.6903	-16.1435	103.228	48.6697	-5.73604	124.984	47.3368	24.6191	105.173	13.9643	3.06133	103.926	42.4814	14.4707	119.846	39.5323	36.4956	152.56	-12.1194	16.4637	163.1	-13.4465	40.9987	183.769	7.77147	17.0658	
42	0.35	192.719	35.7467	25.0572	174.279	59.213	3.93079	146.156	62.4385	-16.6992	120.313	51.3216	-19.9066	173.087	12.431	-47.1631	165.284	17.9339	-67.45	155.632	24.3329	-89.833	154.739	2.86258	-49.591	147.08	10.5701	-68.8321	137.398	22.1522	-97.8307	135.312	16.4998	-27.1131	123.654	44.0507	-19.2625	138.828	47.8185	8.61121	119.477	9.63457	-9.94999	114.813	37.0651	-3.63489	132.404	38.4316	23.3517	161.525	-18.4109	15.5324	166.341	-19.338	41.8921	192.269	-2.06765	17.1302	
43	0.358333	207.223	33.3753	25.87	189.16	48.9306	-1.54346	167.408	49.5005	-24.7074	145.794	38.2566	-31.5417	203.822	-2.05632	-40.531	202.56	1.25993	-72.1573	197.392	3.58539	-92.3912	188.325	-11.3065	-45.1919	187.036	-5.07317	-73.6901	182.097	1.21069	-101.493	161.759	-0.142786	-33.828	148.589	30.7803	-31.2361	153.168	34.8514	-0.328213	143.395	-3.25983	-22.0444	139.348	24.1437	-19.1236	146.486	29.5953	9.6461	180.487	-25.2733	17.175	180.674	-24.0812	44.115	206.152	-8.58093	27.2582	
44	0.366667	214.376	32.0983	25.274	200.819	45.3719	-3.41256	182.835	39.796	-29.2183	164.199	23.6038	-39.6751	234.534	-4.64972	-39.4147	235.595	-3.05188	-62.4071	230.323	-7.08766	-88.0356	221.065	-16.7198	-43.2676	219.417	-16.0828	-70.3266	220.437	-11.7706	-100.074	187.884	-8.49738	-36.9706	170.822	17.4986	-37.633	169.872	24.9699	-7.04388	174.56	-14.0626	-23.1044	159.996	10.3172	-24.4045	165.387	20.511	0.882983	204.657	-30.1059	17.599	197.249	-22.2584	50.7329	226.117	-3.7005	33.6111	
